const cueSet1 = [
 {
          "duration": 0.29126199999999997,
          "durationTicks": 7680,
          "midi": 67,
          "name": "G4",
          "ticks": 0,
          "time": 0,
          "velocity": 0.7874015748031497
        },
        {
          "duration": 0.29126199999999997,
          "durationTicks": 7680,
          "midi": 62,
          "name": "D4",
          "ticks": 7680,
          "time": 0.29126199999999997,
          "velocity": 0.7874015748031497
        },
        {
          "duration": 0.291262,
          "durationTicks": 7680,
          "midi": 58,
          "name": "A#3",
          "ticks": 15360,
          "time": 0.5825239999999999,
          "velocity": 0.7874015748031497
        },
        {
          "duration": 0.2912619999999999,
          "durationTicks": 7680,
          "midi": 62,
          "name": "D4",
          "ticks": 23040,
          "time": 0.873786,
          "velocity": 0.7874015748031497
        },
        {
          "duration": 0.2912619999999999,
          "durationTicks": 7680,
          "midi": 67,
          "name": "G4",
          "ticks": 30720,
          "time": 1.1650479999999999,
          "velocity": 0.7874015748031497
        },
        {
          "duration": 0.29126200000000013,
          "durationTicks": 7680,
          "midi": 62,
          "name": "D4",
          "ticks": 38400,
          "time": 1.4563099999999998,
          "velocity": 0.7874015748031497
        },
        {
          "duration": 0.2912619999999997,
          "durationTicks": 7680,
          "midi": 58,
          "name": "A#3",
          "ticks": 46080,
          "time": 1.747572,
          "velocity": 0.7874015748031497
        },
        {
          "duration": 0.29126200000000013,
          "durationTicks": 7680,
          "midi": 62,
          "name": "D4",
          "ticks": 53760,
          "time": 2.0388339999999996,
          "velocity": 0.7874015748031497
        },
        {
          "duration": 0.29126200000000013,
          "durationTicks": 7680,
          "midi": 67,
          "name": "G4",
          "ticks": 61440,
          "time": 2.3300959999999997,
          "velocity": 0.7874015748031497
        },
        {
          "duration": 0.2912619999999997,
          "durationTicks": 7680,
          "midi": 62,
          "name": "D4",
          "ticks": 69120,
          "time": 2.621358,
          "velocity": 0.7874015748031497
        },
        {
          "duration": 0.29126200000000013,
          "durationTicks": 7680,
          "midi": 58,
          "name": "A#3",
          "ticks": 76800,
          "time": 2.9126199999999995,
          "velocity": 0.7874015748031497
        },
        {
          "duration": 0.29126200000000013,
          "durationTicks": 7680,
          "midi": 62,
          "name": "D4",
          "ticks": 84480,
          "time": 3.2038819999999997,
          "velocity": 0.7874015748031497
        },
        {
          "duration": 0.2912619999999997,
          "durationTicks": 7680,
          "midi": 67,
          "name": "G4",
          "ticks": 92160,
          "time": 3.495144,
          "velocity": 0.7874015748031497
        },
        {
          "duration": 0.2912619999999997,
          "durationTicks": 7680,
          "midi": 62,
          "name": "D4",
          "ticks": 99840,
          "time": 3.7864059999999995,
          "velocity": 0.7874015748031497
        },
        {
          "duration": 0.2912620000000006,
          "durationTicks": 7680,
          "midi": 58,
          "name": "A#3",
          "ticks": 107520,
          "time": 4.077667999999999,
          "velocity": 0.7874015748031497
        },
        {
          "duration": 0.2912619999999997,
          "durationTicks": 7680,
          "midi": 62,
          "name": "D4",
          "ticks": 115200,
          "time": 4.36893,
          "velocity": 0.7874015748031497
        },
        {
          "duration": 0.2912619999999997,
          "durationTicks": 7680,
          "midi": 66,
          "name": "F#4",
          "ticks": 122880,
          "time": 4.6601919999999994,
          "velocity": 0.7874015748031497
        },
        {
          "duration": 0.2912620000000006,
          "durationTicks": 7680,
          "midi": 62,
          "name": "D4",
          "ticks": 130560,
          "time": 4.951453999999999,
          "velocity": 0.7874015748031497
        },
        {
          "duration": 0.2912619999999997,
          "durationTicks": 7680,
          "midi": 58,
          "name": "A#3",
          "ticks": 138240,
          "time": 5.242716,
          "velocity": 0.7874015748031497
        },
        {
          "duration": 0.2912619999999997,
          "durationTicks": 7680,
          "midi": 62,
          "name": "D4",
          "ticks": 145920,
          "time": 5.533977999999999,
          "velocity": 0.7874015748031497
        },
        {
          "duration": 0.2912620000000006,
          "durationTicks": 7680,
          "midi": 66,
          "name": "F#4",
          "ticks": 153600,
          "time": 5.825239999999999,
          "velocity": 0.7874015748031497
        },
        {
          "duration": 0.2912619999999997,
          "durationTicks": 7680,
          "midi": 62,
          "name": "D4",
          "ticks": 161280,
          "time": 6.116502,
          "velocity": 0.7874015748031497
        },
        {
          "duration": 0.2912619999999997,
          "durationTicks": 7680,
          "midi": 58,
          "name": "A#3",
          "ticks": 168960,
          "time": 6.407763999999999,
          "velocity": 0.7874015748031497
        },
        {
          "duration": 0.2912620000000006,
          "durationTicks": 7680,
          "midi": 62,
          "name": "D4",
          "ticks": 176640,
          "time": 6.699025999999999,
          "velocity": 0.7874015748031497
        },
        {
          "duration": 0.2912619999999997,
          "durationTicks": 7680,
          "midi": 66,
          "name": "F#4",
          "ticks": 184320,
          "time": 6.990288,
          "velocity": 0.7874015748031497
        },
        {
          "duration": 0.2912619999999997,
          "durationTicks": 7680,
          "midi": 62,
          "name": "D4",
          "ticks": 192000,
          "time": 7.281549999999999,
          "velocity": 0.7874015748031497
        },
        {
          "duration": 0.2912619999999997,
          "durationTicks": 7680,
          "midi": 58,
          "name": "A#3",
          "ticks": 199680,
          "time": 7.572811999999999,
          "velocity": 0.7874015748031497
        },
        {
          "duration": 0.2912619999999997,
          "durationTicks": 7680,
          "midi": 62,
          "name": "D4",
          "ticks": 207360,
          "time": 7.864073999999999,
          "velocity": 0.7874015748031497
        },
        {
          "duration": 0.29126200000000146,
          "durationTicks": 7680,
          "midi": 66,
          "name": "F#4",
          "ticks": 215040,
          "time": 8.155335999999998,
          "velocity": 0.7874015748031497
        },
        {
          "duration": 0.2912619999999997,
          "durationTicks": 7680,
          "midi": 62,
          "name": "D4",
          "ticks": 222720,
          "time": 8.446598,
          "velocity": 0.7874015748031497
        },
        {
          "duration": 0.2912619999999997,
          "durationTicks": 7680,
          "midi": 58,
          "name": "A#3",
          "ticks": 230400,
          "time": 8.73786,
          "velocity": 0.7874015748031497
        },
        {
          "duration": 0.2912619999999997,
          "durationTicks": 7680,
          "midi": 66,
          "name": "F#4",
          "ticks": 238080,
          "time": 9.029122,
          "velocity": 0.7874015748031497
        },
        {
          "duration": 0.2912619999999997,
          "durationTicks": 7680,
          "midi": 63,
          "name": "D#4",
          "ticks": 245760,
          "time": 9.320383999999999,
          "velocity": 0.7874015748031497
        },
        {
          "duration": 0.2912619999999997,
          "durationTicks": 7680,
          "midi": 60,
          "name": "C4",
          "ticks": 253440,
          "time": 9.611645999999999,
          "velocity": 0.7874015748031497
        },
        {
          "duration": 0.2912619999999997,
          "durationTicks": 7680,
          "midi": 55,
          "name": "G3",
          "ticks": 261120,
          "time": 9.902907999999998,
          "velocity": 0.7874015748031497
        },
        {
          "duration": 0.29126200000000146,
          "durationTicks": 7680,
          "midi": 60,
          "name": "C4",
          "ticks": 268800,
          "time": 10.194169999999998,
          "velocity": 0.7874015748031497
        },
        {
          "duration": 0.2912619999999997,
          "durationTicks": 7680,
          "midi": 63,
          "name": "D#4",
          "ticks": 276480,
          "time": 10.485432,
          "velocity": 0.7874015748031497
        },
        {
          "duration": 0.2912619999999997,
          "durationTicks": 7680,
          "midi": 60,
          "name": "C4",
          "ticks": 284160,
          "time": 10.776693999999999,
          "velocity": 0.7874015748031497
        },
        {
          "duration": 0.2912619999999997,
          "durationTicks": 7680,
          "midi": 63,
          "name": "D#4",
          "ticks": 291840,
          "time": 11.067955999999999,
          "velocity": 0.7874015748031497
        },
        {
          "duration": 0.2912619999999997,
          "durationTicks": 7680,
          "midi": 55,
          "name": "G3",
          "ticks": 299520,
          "time": 11.359217999999998,
          "velocity": 0.7874015748031497
        },
        {
          "duration": 0.2912619999999997,
          "durationTicks": 7680,
          "midi": 63,
          "name": "D#4",
          "ticks": 307200,
          "time": 11.650479999999998,
          "velocity": 0.7874015748031497
        },
        {
          "duration": 0.29126200000000146,
          "durationTicks": 7680,
          "midi": 60,
          "name": "C4",
          "ticks": 314880,
          "time": 11.941741999999998,
          "velocity": 0.7874015748031497
        },
        {
          "duration": 0.2912619999999997,
          "durationTicks": 7680,
          "midi": 55,
          "name": "G3",
          "ticks": 322560,
          "time": 12.233004,
          "velocity": 0.7874015748031497
        },
        {
          "duration": 0.2912619999999997,
          "durationTicks": 7680,
          "midi": 60,
          "name": "C4",
          "ticks": 330240,
          "time": 12.524265999999999,
          "velocity": 0.7874015748031497
        },
        {
          "duration": 0.2912619999999997,
          "durationTicks": 7680,
          "midi": 63,
          "name": "D#4",
          "ticks": 337920,
          "time": 12.815527999999999,
          "velocity": 0.7874015748031497
        },
        {
          "duration": 0.2912619999999997,
          "durationTicks": 7680,
          "midi": 60,
          "name": "C4",
          "ticks": 345600,
          "time": 13.106789999999998,
          "velocity": 0.7874015748031497
        },
        {
          "duration": 0.2912619999999997,
          "durationTicks": 7680,
          "midi": 63,
          "name": "D#4",
          "ticks": 353280,
          "time": 13.398051999999998,
          "velocity": 0.7874015748031497
        },
        {
          "duration": 0.29126200000000146,
          "durationTicks": 7680,
          "midi": 55,
          "name": "G3",
          "ticks": 360960,
          "time": 13.689313999999998,
          "velocity": 0.7874015748031497
        },
        {
          "duration": 0.2912619999999997,
          "durationTicks": 7680,
          "midi": 57,
          "name": "A3",
          "ticks": 368640,
          "time": 13.980576,
          "velocity": 0.7874015748031497
        },
        {
          "duration": 0.2912619999999997,
          "durationTicks": 7680,
          "midi": 54,
          "name": "F#3",
          "ticks": 376320,
          "time": 14.271837999999999,
          "velocity": 0.7874015748031497
        },
        {
          "duration": 0.2912619999999997,
          "durationTicks": 7680,
          "midi": 50,
          "name": "D3",
          "ticks": 384000,
          "time": 14.563099999999999,
          "velocity": 0.7874015748031497
        },
        {
          "duration": 0.2912619999999997,
          "durationTicks": 7680,
          "midi": 54,
          "name": "F#3",
          "ticks": 391680,
          "time": 14.854361999999998,
          "velocity": 0.7874015748031497
        },
        {
          "duration": 0.2912619999999997,
          "durationTicks": 7680,
          "midi": 57,
          "name": "A3",
          "ticks": 399360,
          "time": 15.145623999999998,
          "velocity": 0.7874015748031497
        },
        {
          "duration": 0.2912619999999997,
          "durationTicks": 7680,
          "midi": 60,
          "name": "C4",
          "ticks": 407040,
          "time": 15.436885999999998,
          "velocity": 0.7874015748031497
        },
        {
          "duration": 0.2912619999999997,
          "durationTicks": 7680,
          "midi": 50,
          "name": "D3",
          "ticks": 414720,
          "time": 15.728147999999997,
          "velocity": 0.7874015748031497
        },
        {
          "duration": 0.2912619999999997,
          "durationTicks": 7680,
          "midi": 54,
          "name": "F#3",
          "ticks": 422400,
          "time": 16.019409999999997,
          "velocity": 0.7874015748031497
        },
        {
          "duration": 0.2912619999999997,
          "durationTicks": 7680,
          "midi": 57,
          "name": "A3",
          "ticks": 430080,
          "time": 16.310671999999997,
          "velocity": 0.7874015748031497
        },
        {
          "duration": 0.29126200000000324,
          "durationTicks": 7680,
          "midi": 54,
          "name": "F#3",
          "ticks": 437760,
          "time": 16.601933999999996,
          "velocity": 0.7874015748031497
        },
        {
          "duration": 0.2912619999999997,
          "durationTicks": 7680,
          "midi": 50,
          "name": "D3",
          "ticks": 445440,
          "time": 16.893196,
          "velocity": 0.7874015748031497
        },
        {
          "duration": 0.2912619999999997,
          "durationTicks": 7680,
          "midi": 54,
          "name": "F#3",
          "ticks": 453120,
          "time": 17.184458,
          "velocity": 0.7874015748031497
        },
        {
          "duration": 0.2912619999999997,
          "durationTicks": 7680,
          "midi": 57,
          "name": "A3",
          "ticks": 460800,
          "time": 17.47572,
          "velocity": 0.7874015748031497
        },
        {
          "duration": 0.2912619999999997,
          "durationTicks": 7680,
          "midi": 60,
          "name": "C4",
          "ticks": 468480,
          "time": 17.766982,
          "velocity": 0.7874015748031497
        },
        {
          "duration": 0.2912619999999997,
          "durationTicks": 7680,
          "midi": 50,
          "name": "D3",
          "ticks": 476160,
          "time": 18.058244,
          "velocity": 0.7874015748031497
        },
        {
          "duration": 0.2912619999999997,
          "durationTicks": 7680,
          "midi": 54,
          "name": "F#3",
          "ticks": 483840,
          "time": 18.349505999999998,
          "velocity": 0.7874015748031497
        },
        {
          "duration": 0.2912619999999997,
          "durationTicks": 7680,
          "midi": 67,
          "name": "G4",
          "ticks": 491520,
          "time": 18.640767999999998,
          "velocity": 0.7874015748031497
        },
        {
          "duration": 0.2912619999999997,
          "durationTicks": 7680,
          "midi": 62,
          "name": "D4",
          "ticks": 499200,
          "time": 18.932029999999997,
          "velocity": 0.7874015748031497
        },
        {
          "duration": 0.2912619999999997,
          "durationTicks": 7680,
          "midi": 58,
          "name": "A#3",
          "ticks": 506880,
          "time": 19.223291999999997,
          "velocity": 0.7874015748031497
        },
        {
          "duration": 0.2912619999999997,
          "durationTicks": 7680,
          "midi": 62,
          "name": "D4",
          "ticks": 514560,
          "time": 19.514553999999997,
          "velocity": 0.7874015748031497
        },
        {
          "duration": 0.2912619999999997,
          "durationTicks": 7680,
          "midi": 67,
          "name": "G4",
          "ticks": 522240,
          "time": 19.805815999999997,
          "velocity": 0.7874015748031497
        },
        {
          "duration": 0.2912619999999997,
          "durationTicks": 7680,
          "midi": 62,
          "name": "D4",
          "ticks": 529920,
          "time": 20.097077999999996,
          "velocity": 0.7874015748031497
        },
        {
          "duration": 0.29126200000000324,
          "durationTicks": 7680,
          "midi": 58,
          "name": "A#3",
          "ticks": 537600,
          "time": 20.388339999999996,
          "velocity": 0.7874015748031497
        },
        {
          "duration": 0.2912619999999997,
          "durationTicks": 7680,
          "midi": 62,
          "name": "D4",
          "ticks": 545280,
          "time": 20.679602,
          "velocity": 0.7874015748031497
        },
        {
          "duration": 0.2912619999999997,
          "durationTicks": 7680,
          "midi": 67,
          "name": "G4",
          "ticks": 552960,
          "time": 20.970864,
          "velocity": 0.7874015748031497
        },
        {
          "duration": 0.2912619999999997,
          "durationTicks": 7680,
          "midi": 62,
          "name": "D4",
          "ticks": 560640,
          "time": 21.262126,
          "velocity": 0.7874015748031497
        },
        {
          "duration": 0.2912619999999997,
          "durationTicks": 7680,
          "midi": 58,
          "name": "A#3",
          "ticks": 568320,
          "time": 21.553387999999998,
          "velocity": 0.7874015748031497
        },
        {
          "duration": 0.2912619999999997,
          "durationTicks": 7680,
          "midi": 62,
          "name": "D4",
          "ticks": 576000,
          "time": 21.844649999999998,
          "velocity": 0.7874015748031497
        },
        {
          "duration": 0.2912619999999997,
          "durationTicks": 7680,
          "midi": 67,
          "name": "G4",
          "ticks": 583680,
          "time": 22.135911999999998,
          "velocity": 0.7874015748031497
        },
        {
          "duration": 0.2912619999999997,
          "durationTicks": 7680,
          "midi": 62,
          "name": "D4",
          "ticks": 591360,
          "time": 22.427173999999997,
          "velocity": 0.7874015748031497
        },
        {
          "duration": 0.2912619999999997,
          "durationTicks": 7680,
          "midi": 58,
          "name": "A#3",
          "ticks": 599040,
          "time": 22.718435999999997,
          "velocity": 0.7874015748031497
        },
        {
          "duration": 0.2912619999999997,
          "durationTicks": 7680,
          "midi": 62,
          "name": "D4",
          "ticks": 606720,
          "time": 23.009697999999997,
          "velocity": 0.7874015748031497
        },
        {
          "duration": 0.2912619999999997,
          "durationTicks": 7680,
          "midi": 66,
          "name": "F#4",
          "ticks": 614400,
          "time": 23.300959999999996,
          "velocity": 0.7874015748031497
        },
        {
          "duration": 0.2912619999999997,
          "durationTicks": 7680,
          "midi": 62,
          "name": "D4",
          "ticks": 622080,
          "time": 23.592221999999996,
          "velocity": 0.7874015748031497
        },
        {
          "duration": 0.2912619999999997,
          "durationTicks": 7680,
          "midi": 58,
          "name": "A#3",
          "ticks": 629760,
          "time": 23.883483999999996,
          "velocity": 0.7874015748031497
        },
        {
          "duration": 0.29126200000000324,
          "durationTicks": 7680,
          "midi": 62,
          "name": "D4",
          "ticks": 637440,
          "time": 24.174745999999995,
          "velocity": 0.7874015748031497
        },
        {
          "duration": 0.2912619999999997,
          "durationTicks": 7680,
          "midi": 66,
          "name": "F#4",
          "ticks": 645120,
          "time": 24.466008,
          "velocity": 0.7874015748031497
        },
        {
          "duration": 0.2912619999999997,
          "durationTicks": 7680,
          "midi": 62,
          "name": "D4",
          "ticks": 652800,
          "time": 24.75727,
          "velocity": 0.7874015748031497
        },
        {
          "duration": 0.2912619999999997,
          "durationTicks": 7680,
          "midi": 58,
          "name": "A#3",
          "ticks": 660480,
          "time": 25.048531999999998,
          "velocity": 0.7874015748031497
        },
        {
          "duration": 0.2912619999999997,
          "durationTicks": 7680,
          "midi": 62,
          "name": "D4",
          "ticks": 668160,
          "time": 25.339793999999998,
          "velocity": 0.7874015748031497
        },
        {
          "duration": 0.2912619999999997,
          "durationTicks": 7680,
          "midi": 66,
          "name": "F#4",
          "ticks": 675840,
          "time": 25.631055999999997,
          "velocity": 0.7874015748031497
        },
        {
          "duration": 0.2912619999999997,
          "durationTicks": 7680,
          "midi": 62,
          "name": "D4",
          "ticks": 683520,
          "time": 25.922317999999997,
          "velocity": 0.7874015748031497
        },
        {
          "duration": 0.2912619999999997,
          "durationTicks": 7680,
          "midi": 58,
          "name": "A#3",
          "ticks": 691200,
          "time": 26.213579999999997,
          "velocity": 0.7874015748031497
        },
        {
          "duration": 0.2912619999999997,
          "durationTicks": 7680,
          "midi": 62,
          "name": "D4",
          "ticks": 698880,
          "time": 26.504841999999996,
          "velocity": 0.7874015748031497
        },
        {
          "duration": 0.2912619999999997,
          "durationTicks": 7680,
          "midi": 66,
          "name": "F#4",
          "ticks": 706560,
          "time": 26.796103999999996,
          "velocity": 0.7874015748031497
        },
        {
          "duration": 0.2912619999999997,
          "durationTicks": 7680,
          "midi": 62,
          "name": "D4",
          "ticks": 714240,
          "time": 27.087365999999996,
          "velocity": 0.7874015748031497
        },
        {
          "duration": 0.2912619999999997,
          "durationTicks": 7680,
          "midi": 58,
          "name": "A#3",
          "ticks": 721920,
          "time": 27.378627999999996,
          "velocity": 0.7874015748031497
        },
        {
          "duration": 0.29126200000000324,
          "durationTicks": 7680,
          "midi": 66,
          "name": "F#4",
          "ticks": 729600,
          "time": 27.669889999999995,
          "velocity": 0.7874015748031497
        },
        {
          "duration": 0.2912619999999997,
          "durationTicks": 7680,
          "midi": 63,
          "name": "D#4",
          "ticks": 737280,
          "time": 27.961152,
          "velocity": 0.7874015748031497
        },
        {
          "duration": 0.2912619999999997,
          "durationTicks": 7680,
          "midi": 60,
          "name": "C4",
          "ticks": 744960,
          "time": 28.252413999999998,
          "velocity": 0.7874015748031497
        },
        {
          "duration": 0.2912619999999997,
          "durationTicks": 7680,
          "midi": 55,
          "name": "G3",
          "ticks": 752640,
          "time": 28.543675999999998,
          "velocity": 0.7874015748031497
        },
        {
          "duration": 0.2912619999999997,
          "durationTicks": 7680,
          "midi": 60,
          "name": "C4",
          "ticks": 760320,
          "time": 28.834937999999998,
          "velocity": 0.7874015748031497
        },
        {
          "duration": 0.2912619999999997,
          "durationTicks": 7680,
          "midi": 63,
          "name": "D#4",
          "ticks": 768000,
          "time": 29.126199999999997,
          "velocity": 0.7874015748031497
        },
        {
          "duration": 0.2912619999999997,
          "durationTicks": 7680,
          "midi": 60,
          "name": "C4",
          "ticks": 775680,
          "time": 29.417461999999997,
          "velocity": 0.7874015748031497
        },
        {
          "duration": 0.2912619999999997,
          "durationTicks": 7680,
          "midi": 63,
          "name": "D#4",
          "ticks": 783360,
          "time": 29.708723999999997,
          "velocity": 0.7874015748031497
        },
        {
          "duration": 0.2912619999999997,
          "durationTicks": 7680,
          "midi": 55,
          "name": "G3",
          "ticks": 791040,
          "time": 29.999985999999996,
          "velocity": 0.7874015748031497
        },
        {
          "duration": 0.2912619999999997,
          "durationTicks": 7680,
          "midi": 63,
          "name": "D#4",
          "ticks": 798720,
          "time": 30.291247999999996,
          "velocity": 0.7874015748031497
        },
        {
          "duration": 0.2912619999999997,
          "durationTicks": 7680,
          "midi": 60,
          "name": "C4",
          "ticks": 806400,
          "time": 30.582509999999996,
          "velocity": 0.7874015748031497
        },
        {
          "duration": 0.2912619999999997,
          "durationTicks": 7680,
          "midi": 55,
          "name": "G3",
          "ticks": 814080,
          "time": 30.873771999999995,
          "velocity": 0.7874015748031497
        },
        {
          "duration": 0.2912619999999997,
          "durationTicks": 7680,
          "midi": 60,
          "name": "C4",
          "ticks": 821760,
          "time": 31.165033999999995,
          "velocity": 0.7874015748031497
        },
        {
          "duration": 0.29126200000000324,
          "durationTicks": 7680,
          "midi": 63,
          "name": "D#4",
          "ticks": 829440,
          "time": 31.456295999999995,
          "velocity": 0.7874015748031497
        },
        {
          "duration": 0.29126199999999614,
          "durationTicks": 7680,
          "midi": 60,
          "name": "C4",
          "ticks": 837120,
          "time": 31.747557999999998,
          "velocity": 0.7874015748031497
        },
        {
          "duration": 0.29126200000000324,
          "durationTicks": 7680,
          "midi": 63,
          "name": "D#4",
          "ticks": 844800,
          "time": 32.038819999999994,
          "velocity": 0.7874015748031497
        },
        {
          "duration": 0.29126199999999614,
          "durationTicks": 7680,
          "midi": 55,
          "name": "G3",
          "ticks": 852480,
          "time": 32.330082,
          "velocity": 0.7874015748031497
        },
        {
          "duration": 0.29126200000000324,
          "durationTicks": 7680,
          "midi": 57,
          "name": "A3",
          "ticks": 860160,
          "time": 32.62134399999999,
          "velocity": 0.7874015748031497
        },
        {
          "duration": 0.29126199999999614,
          "durationTicks": 7680,
          "midi": 54,
          "name": "F#3",
          "ticks": 867840,
          "time": 32.912606,
          "velocity": 0.7874015748031497
        },
        {
          "duration": 0.29126200000000324,
          "durationTicks": 7680,
          "midi": 50,
          "name": "D3",
          "ticks": 875520,
          "time": 33.20386799999999,
          "velocity": 0.7874015748031497
        },
        {
          "duration": 0.29126200000000324,
          "durationTicks": 7680,
          "midi": 54,
          "name": "F#3",
          "ticks": 883200,
          "time": 33.495129999999996,
          "velocity": 0.7874015748031497
        },
        {
          "duration": 0.29126199999999614,
          "durationTicks": 7680,
          "midi": 57,
          "name": "A3",
          "ticks": 890880,
          "time": 33.786392,
          "velocity": 0.7874015748031497
        },
        {
          "duration": 0.29126200000000324,
          "durationTicks": 7680,
          "midi": 60,
          "name": "C4",
          "ticks": 898560,
          "time": 34.077653999999995,
          "velocity": 0.7874015748031497
        },
        {
          "duration": 0.29126199999999614,
          "durationTicks": 7680,
          "midi": 50,
          "name": "D3",
          "ticks": 906240,
          "time": 34.368916,
          "velocity": 0.7874015748031497
        },
        {
          "duration": 0.29126200000000324,
          "durationTicks": 7680,
          "midi": 54,
          "name": "F#3",
          "ticks": 913920,
          "time": 34.660177999999995,
          "velocity": 0.7874015748031497
        },
        {
          "duration": 0.29126199999999614,
          "durationTicks": 7680,
          "midi": 57,
          "name": "A3",
          "ticks": 921600,
          "time": 34.95144,
          "velocity": 0.7874015748031497
        },
        {
          "duration": 0.29126200000000324,
          "durationTicks": 7680,
          "midi": 54,
          "name": "F#3",
          "ticks": 929280,
          "time": 35.242701999999994,
          "velocity": 0.7874015748031497
        },
        {
          "duration": 0.29126199999999614,
          "durationTicks": 7680,
          "midi": 50,
          "name": "D3",
          "ticks": 936960,
          "time": 35.533964,
          "velocity": 0.7874015748031497
        },
        {
          "duration": 0.29126200000000324,
          "durationTicks": 7680,
          "midi": 54,
          "name": "F#3",
          "ticks": 944640,
          "time": 35.825225999999994,
          "velocity": 0.7874015748031497
        },
        {
          "duration": 0.29126199999999614,
          "durationTicks": 7680,
          "midi": 57,
          "name": "A3",
          "ticks": 952320,
          "time": 36.116488,
          "velocity": 0.7874015748031497
        },
        {
          "duration": 0.29126200000000324,
          "durationTicks": 7680,
          "midi": 60,
          "name": "C4",
          "ticks": 960000,
          "time": 36.40774999999999,
          "velocity": 0.7874015748031497
        },
        {
          "duration": 0.29126199999999614,
          "durationTicks": 7680,
          "midi": 50,
          "name": "D3",
          "ticks": 967680,
          "time": 36.699011999999996,
          "velocity": 0.7874015748031497
        },
        {
          "duration": 0.29126200000000324,
          "durationTicks": 7680,
          "midi": 54,
          "name": "F#3",
          "ticks": 975360,
          "time": 36.99027399999999,
          "velocity": 0.7874015748031497
        },
        {
          "duration": 0.29126200000000324,
          "durationTicks": 7680,
          "midi": 67,
          "name": "G4",
          "ticks": 983040,
          "time": 37.281535999999996,
          "velocity": 0.7874015748031497
        },
        {
          "duration": 0.29126199999999614,
          "durationTicks": 7680,
          "midi": 62,
          "name": "D4",
          "ticks": 990720,
          "time": 37.572798,
          "velocity": 0.7874015748031497
        },
        {
          "duration": 0.29126200000000324,
          "durationTicks": 7680,
          "midi": 58,
          "name": "A#3",
          "ticks": 998400,
          "time": 37.864059999999995,
          "velocity": 0.7874015748031497
        },
        {
          "duration": 0.29126199999999614,
          "durationTicks": 7680,
          "midi": 62,
          "name": "D4",
          "ticks": 1006080,
          "time": 38.155322,
          "velocity": 0.7874015748031497
        },
        {
          "duration": 0.29126200000000324,
          "durationTicks": 7680,
          "midi": 67,
          "name": "G4",
          "ticks": 1013760,
          "time": 38.446583999999994,
          "velocity": 0.7874015748031497
        },
        {
          "duration": 0.29126199999999614,
          "durationTicks": 7680,
          "midi": 62,
          "name": "D4",
          "ticks": 1021440,
          "time": 38.737846,
          "velocity": 0.7874015748031497
        },
        {
          "duration": 0.29126200000000324,
          "durationTicks": 7680,
          "midi": 58,
          "name": "A#3",
          "ticks": 1029120,
          "time": 39.029107999999994,
          "velocity": 0.7874015748031497
        },
        {
          "duration": 0.29126199999999614,
          "durationTicks": 7680,
          "midi": 62,
          "name": "D4",
          "ticks": 1036800,
          "time": 39.32037,
          "velocity": 0.7874015748031497
        },
        {
          "duration": 0.29126200000000324,
          "durationTicks": 7680,
          "midi": 67,
          "name": "G4",
          "ticks": 1044480,
          "time": 39.61163199999999,
          "velocity": 0.7874015748031497
        },
        {
          "duration": 0.29126199999999614,
          "durationTicks": 7680,
          "midi": 62,
          "name": "D4",
          "ticks": 1052160,
          "time": 39.902893999999996,
          "velocity": 0.7874015748031497
        },
        {
          "duration": 0.29126200000000324,
          "durationTicks": 7680,
          "midi": 58,
          "name": "A#3",
          "ticks": 1059840,
          "time": 40.19415599999999,
          "velocity": 0.7874015748031497
        },
        {
          "duration": 0.29126199999999614,
          "durationTicks": 7680,
          "midi": 62,
          "name": "D4",
          "ticks": 1067520,
          "time": 40.485417999999996,
          "velocity": 0.7874015748031497
        },
        {
          "duration": 0.29126200000000324,
          "durationTicks": 7680,
          "midi": 67,
          "name": "G4",
          "ticks": 1075200,
          "time": 40.77667999999999,
          "velocity": 0.7874015748031497
        },
        {
          "duration": 0.29126200000000324,
          "durationTicks": 7680,
          "midi": 62,
          "name": "D4",
          "ticks": 1082880,
          "time": 41.067941999999995,
          "velocity": 0.7874015748031497
        },
        {
          "duration": 0.29126199999999614,
          "durationTicks": 7680,
          "midi": 58,
          "name": "A#3",
          "ticks": 1090560,
          "time": 41.359204,
          "velocity": 0.7874015748031497
        },
        {
          "duration": 0.29126200000000324,
          "durationTicks": 7680,
          "midi": 62,
          "name": "D4",
          "ticks": 1098240,
          "time": 41.650465999999994,
          "velocity": 0.7874015748031497
        },
        {
          "duration": 0.29126199999999614,
          "durationTicks": 7680,
          "midi": 66,
          "name": "F#4",
          "ticks": 1105920,
          "time": 41.941728,
          "velocity": 0.7874015748031497
        },
        {
          "duration": 0.29126200000000324,
          "durationTicks": 7680,
          "midi": 62,
          "name": "D4",
          "ticks": 1113600,
          "time": 42.232989999999994,
          "velocity": 0.7874015748031497
        },
        {
          "duration": 0.29126199999999614,
          "durationTicks": 7680,
          "midi": 58,
          "name": "A#3",
          "ticks": 1121280,
          "time": 42.524252,
          "velocity": 0.7874015748031497
        },
        {
          "duration": 0.29126200000000324,
          "durationTicks": 7680,
          "midi": 62,
          "name": "D4",
          "ticks": 1128960,
          "time": 42.81551399999999,
          "velocity": 0.7874015748031497
        },
        {
          "duration": 0.29126199999999614,
          "durationTicks": 7680,
          "midi": 66,
          "name": "F#4",
          "ticks": 1136640,
          "time": 43.106775999999996,
          "velocity": 0.7874015748031497
        },
        {
          "duration": 0.29126200000000324,
          "durationTicks": 7680,
          "midi": 62,
          "name": "D4",
          "ticks": 1144320,
          "time": 43.39803799999999,
          "velocity": 0.7874015748031497
        },
        {
          "duration": 0.29126199999999614,
          "durationTicks": 7680,
          "midi": 58,
          "name": "A#3",
          "ticks": 1152000,
          "time": 43.689299999999996,
          "velocity": 0.7874015748031497
        },
        {
          "duration": 0.29126200000000324,
          "durationTicks": 7680,
          "midi": 62,
          "name": "D4",
          "ticks": 1159680,
          "time": 43.98056199999999,
          "velocity": 0.7874015748031497
        },
        {
          "duration": 0.29126199999999614,
          "durationTicks": 7680,
          "midi": 66,
          "name": "F#4",
          "ticks": 1167360,
          "time": 44.271823999999995,
          "velocity": 0.7874015748031497
        },
        {
          "duration": 0.29126200000000324,
          "durationTicks": 7680,
          "midi": 62,
          "name": "D4",
          "ticks": 1175040,
          "time": 44.56308599999999,
          "velocity": 0.7874015748031497
        },
        {
          "duration": 0.29126200000000324,
          "durationTicks": 7680,
          "midi": 58,
          "name": "A#3",
          "ticks": 1182720,
          "time": 44.854347999999995,
          "velocity": 0.7874015748031497
        },
        {
          "duration": 0.29126199999999614,
          "durationTicks": 7680,
          "midi": 62,
          "name": "D4",
          "ticks": 1190400,
          "time": 45.14561,
          "velocity": 0.7874015748031497
        },
        {
          "duration": 0.29126200000000324,
          "durationTicks": 7680,
          "midi": 66,
          "name": "F#4",
          "ticks": 1198080,
          "time": 45.436871999999994,
          "velocity": 0.7874015748031497
        },
        {
          "duration": 0.29126199999999614,
          "durationTicks": 7680,
          "midi": 62,
          "name": "D4",
          "ticks": 1205760,
          "time": 45.728134,
          "velocity": 0.7874015748031497
        },
        {
          "duration": 0.29126200000000324,
          "durationTicks": 7680,
          "midi": 58,
          "name": "A#3",
          "ticks": 1213440,
          "time": 46.01939599999999,
          "velocity": 0.7874015748031497
        },
        {
          "duration": 0.29126199999999614,
          "durationTicks": 7680,
          "midi": 66,
          "name": "F#4",
          "ticks": 1221120,
          "time": 46.310658,
          "velocity": 0.7874015748031497
        },
        {
          "duration": 0.29126200000000324,
          "durationTicks": 7680,
          "midi": 63,
          "name": "D#4",
          "ticks": 1228800,
          "time": 46.60191999999999,
          "velocity": 0.7874015748031497
        },
        {
          "duration": 0.29126199999999614,
          "durationTicks": 7680,
          "midi": 60,
          "name": "C4",
          "ticks": 1236480,
          "time": 46.893181999999996,
          "velocity": 0.7874015748031497
        },
        {
          "duration": 0.29126200000000324,
          "durationTicks": 7680,
          "midi": 55,
          "name": "G3",
          "ticks": 1244160,
          "time": 47.18444399999999,
          "velocity": 0.7874015748031497
        },
        {
          "duration": 0.29126199999999614,
          "durationTicks": 7680,
          "midi": 60,
          "name": "C4",
          "ticks": 1251840,
          "time": 47.475705999999995,
          "velocity": 0.7874015748031497
        },
        {
          "duration": 0.29126200000000324,
          "durationTicks": 7680,
          "midi": 63,
          "name": "D#4",
          "ticks": 1259520,
          "time": 47.76696799999999,
          "velocity": 0.7874015748031497
        },
        {
          "duration": 0.29126199999999614,
          "durationTicks": 7680,
          "midi": 60,
          "name": "C4",
          "ticks": 1267200,
          "time": 48.058229999999995,
          "velocity": 0.7874015748031497
        },
        {
          "duration": 0.29126200000000324,
          "durationTicks": 7680,
          "midi": 63,
          "name": "D#4",
          "ticks": 1274880,
          "time": 48.34949199999999,
          "velocity": 0.7874015748031497
        },
        {
          "duration": 0.29126200000000324,
          "durationTicks": 7680,
          "midi": 55,
          "name": "G3",
          "ticks": 1282560,
          "time": 48.640753999999994,
          "velocity": 0.7874015748031497
        },
        {
          "duration": 0.29126199999999614,
          "durationTicks": 7680,
          "midi": 63,
          "name": "D#4",
          "ticks": 1290240,
          "time": 48.932016,
          "velocity": 0.7874015748031497
        },
        {
          "duration": 0.29126200000000324,
          "durationTicks": 7680,
          "midi": 60,
          "name": "C4",
          "ticks": 1297920,
          "time": 49.22327799999999,
          "velocity": 0.7874015748031497
        },
        {
          "duration": 0.29126199999999614,
          "durationTicks": 7680,
          "midi": 55,
          "name": "G3",
          "ticks": 1305600,
          "time": 49.51454,
          "velocity": 0.7874015748031497
        },
        {
          "duration": 0.29126200000000324,
          "durationTicks": 7680,
          "midi": 60,
          "name": "C4",
          "ticks": 1313280,
          "time": 49.80580199999999,
          "velocity": 0.7874015748031497
        },
        {
          "duration": 0.29126199999999614,
          "durationTicks": 7680,
          "midi": 63,
          "name": "D#4",
          "ticks": 1320960,
          "time": 50.097063999999996,
          "velocity": 0.7874015748031497
        },
        {
          "duration": 0.29126200000000324,
          "durationTicks": 7680,
          "midi": 60,
          "name": "C4",
          "ticks": 1328640,
          "time": 50.38832599999999,
          "velocity": 0.7874015748031497
        },
        {
          "duration": 0.29126199999999614,
          "durationTicks": 7680,
          "midi": 63,
          "name": "D#4",
          "ticks": 1336320,
          "time": 50.679587999999995,
          "velocity": 0.7874015748031497
        },
        {
          "duration": 0.29126200000000324,
          "durationTicks": 7680,
          "midi": 55,
          "name": "G3",
          "ticks": 1344000,
          "time": 50.97084999999999,
          "velocity": 0.7874015748031497
        },
        {
          "duration": 0.29126199999999614,
          "durationTicks": 7680,
          "midi": 57,
          "name": "A3",
          "ticks": 1351680,
          "time": 51.262111999999995,
          "velocity": 0.7874015748031497
        },
        {
          "duration": 0.29126200000000324,
          "durationTicks": 7680,
          "midi": 54,
          "name": "F#3",
          "ticks": 1359360,
          "time": 51.55337399999999,
          "velocity": 0.7874015748031497
        },
        {
          "duration": 0.29126199999999614,
          "durationTicks": 7680,
          "midi": 50,
          "name": "D3",
          "ticks": 1367040,
          "time": 51.844635999999994,
          "velocity": 0.7874015748031497
        },
        {
          "duration": 0.29126200000000324,
          "durationTicks": 7680,
          "midi": 54,
          "name": "F#3",
          "ticks": 1374720,
          "time": 52.13589799999999,
          "velocity": 0.7874015748031497
        },
        {
          "duration": 0.29126200000000324,
          "durationTicks": 7680,
          "midi": 57,
          "name": "A3",
          "ticks": 1382400,
          "time": 52.42715999999999,
          "velocity": 0.7874015748031497
        },
        {
          "duration": 0.29126199999999614,
          "durationTicks": 7680,
          "midi": 60,
          "name": "C4",
          "ticks": 1390080,
          "time": 52.718422,
          "velocity": 0.7874015748031497
        },
        {
          "duration": 0.29126200000000324,
          "durationTicks": 7680,
          "midi": 50,
          "name": "D3",
          "ticks": 1397760,
          "time": 53.00968399999999,
          "velocity": 0.7874015748031497
        },
        {
          "duration": 0.29126199999999614,
          "durationTicks": 7680,
          "midi": 54,
          "name": "F#3",
          "ticks": 1405440,
          "time": 53.300945999999996,
          "velocity": 0.7874015748031497
        },
        {
          "duration": 0.29126200000000324,
          "durationTicks": 7680,
          "midi": 57,
          "name": "A3",
          "ticks": 1413120,
          "time": 53.59220799999999,
          "velocity": 0.7874015748031497
        },
        {
          "duration": 0.29126199999999614,
          "durationTicks": 7680,
          "midi": 54,
          "name": "F#3",
          "ticks": 1420800,
          "time": 53.883469999999996,
          "velocity": 0.7874015748031497
        },
        {
          "duration": 0.29126200000000324,
          "durationTicks": 7680,
          "midi": 50,
          "name": "D3",
          "ticks": 1428480,
          "time": 54.17473199999999,
          "velocity": 0.7874015748031497
        },
        {
          "duration": 0.29126199999999614,
          "durationTicks": 7680,
          "midi": 54,
          "name": "F#3",
          "ticks": 1436160,
          "time": 54.465993999999995,
          "velocity": 0.7874015748031497
        },
        {
          "duration": 0.29126200000000324,
          "durationTicks": 7680,
          "midi": 57,
          "name": "A3",
          "ticks": 1443840,
          "time": 54.75725599999999,
          "velocity": 0.7874015748031497
        },
        {
          "duration": 0.29126199999999614,
          "durationTicks": 7680,
          "midi": 60,
          "name": "C4",
          "ticks": 1451520,
          "time": 55.048517999999994,
          "velocity": 0.7874015748031497
        },
        {
          "duration": 0.29126200000000324,
          "durationTicks": 7680,
          "midi": 50,
          "name": "D3",
          "ticks": 1459200,
          "time": 55.33977999999999,
          "velocity": 0.7874015748031497
        },
        {
          "duration": 0.29126200000000324,
          "durationTicks": 7680,
          "midi": 54,
          "name": "F#3",
          "ticks": 1466880,
          "time": 55.631041999999994,
          "velocity": 0.7874015748031497
        }
];

export default cueSet1;
