const cueSet2 = [
 {
          "duration": 0.2912619999999997,
          "durationTicks": 7680,
          "midi": 79,
          "name": "G5",
          "ticks": 491519,
          "time": 18.640730075260414,
          "velocity": 0.7874015748031497
        },
        {
          "duration": 0.2912619999999997,
          "durationTicks": 7680,
          "midi": 74,
          "name": "D5",
          "ticks": 499199,
          "time": 18.931992075260414,
          "velocity": 0.7874015748031497
        },
        {
          "duration": 0.2912619999999997,
          "durationTicks": 7680,
          "midi": 70,
          "name": "A#4",
          "ticks": 506879,
          "time": 19.223254075260414,
          "velocity": 0.7874015748031497
        },
        {
          "duration": 0.2912619999999997,
          "durationTicks": 7680,
          "midi": 74,
          "name": "D5",
          "ticks": 514559,
          "time": 19.514516075260413,
          "velocity": 0.7874015748031497
        },
        {
          "duration": 0.29126200000000324,
          "durationTicks": 7680,
          "midi": 79,
          "name": "G5",
          "ticks": 522239,
          "time": 19.805778075260413,
          "velocity": 0.7874015748031497
        },
        {
          "duration": 0.2912619999999997,
          "durationTicks": 7680,
          "midi": 74,
          "name": "D5",
          "ticks": 529919,
          "time": 20.097040075260416,
          "velocity": 0.7874015748031497
        },
        {
          "duration": 0.2912619999999997,
          "durationTicks": 7680,
          "midi": 70,
          "name": "A#4",
          "ticks": 537599,
          "time": 20.388302075260416,
          "velocity": 0.7874015748031497
        },
        {
          "duration": 0.2912619999999997,
          "durationTicks": 7680,
          "midi": 74,
          "name": "D5",
          "ticks": 545279,
          "time": 20.679564075260416,
          "velocity": 0.7874015748031497
        },
        {
          "duration": 0.2912619999999997,
          "durationTicks": 7680,
          "midi": 79,
          "name": "G5",
          "ticks": 552959,
          "time": 20.970826075260415,
          "velocity": 0.7874015748031497
        },
        {
          "duration": 0.2912619999999997,
          "durationTicks": 7680,
          "midi": 74,
          "name": "D5",
          "ticks": 560639,
          "time": 21.262088075260415,
          "velocity": 0.7874015748031497
        },
        {
          "duration": 0.2912619999999997,
          "durationTicks": 7680,
          "midi": 70,
          "name": "A#4",
          "ticks": 568319,
          "time": 21.553350075260415,
          "velocity": 0.7874015748031497
        },
        {
          "duration": 0.2912619999999997,
          "durationTicks": 7680,
          "midi": 74,
          "name": "D5",
          "ticks": 575999,
          "time": 21.844612075260414,
          "velocity": 0.7874015748031497
        },
        {
          "duration": 0.2912619999999997,
          "durationTicks": 7680,
          "midi": 79,
          "name": "G5",
          "ticks": 583679,
          "time": 22.135874075260414,
          "velocity": 0.7874015748031497
        },
        {
          "duration": 0.2912619999999997,
          "durationTicks": 7680,
          "midi": 74,
          "name": "D5",
          "ticks": 591359,
          "time": 22.427136075260414,
          "velocity": 0.7874015748031497
        },
        {
          "duration": 0.2912619999999997,
          "durationTicks": 7680,
          "midi": 70,
          "name": "A#4",
          "ticks": 599039,
          "time": 22.718398075260414,
          "velocity": 0.7874015748031497
        },
        {
          "duration": 0.2912619999999997,
          "durationTicks": 7680,
          "midi": 74,
          "name": "D5",
          "ticks": 606719,
          "time": 23.009660075260413,
          "velocity": 0.7874015748031497
        },
        {
          "duration": 0.29126200000000324,
          "durationTicks": 7680,
          "midi": 78,
          "name": "F#5",
          "ticks": 614399,
          "time": 23.300922075260413,
          "velocity": 0.7874015748031497
        },
        {
          "duration": 0.2912619999999997,
          "durationTicks": 7680,
          "midi": 74,
          "name": "D5",
          "ticks": 622079,
          "time": 23.592184075260416,
          "velocity": 0.7874015748031497
        },
        {
          "duration": 0.2912619999999997,
          "durationTicks": 7680,
          "midi": 70,
          "name": "A#4",
          "ticks": 629759,
          "time": 23.883446075260416,
          "velocity": 0.7874015748031497
        },
        {
          "duration": 0.2912619999999997,
          "durationTicks": 7680,
          "midi": 74,
          "name": "D5",
          "ticks": 637439,
          "time": 24.174708075260416,
          "velocity": 0.7874015748031497
        },
        {
          "duration": 0.2912619999999997,
          "durationTicks": 7680,
          "midi": 78,
          "name": "F#5",
          "ticks": 645119,
          "time": 24.465970075260415,
          "velocity": 0.7874015748031497
        },
        {
          "duration": 0.2912619999999997,
          "durationTicks": 7680,
          "midi": 74,
          "name": "D5",
          "ticks": 652799,
          "time": 24.757232075260415,
          "velocity": 0.7874015748031497
        },
        {
          "duration": 0.2912619999999997,
          "durationTicks": 7680,
          "midi": 70,
          "name": "A#4",
          "ticks": 660479,
          "time": 25.048494075260415,
          "velocity": 0.7874015748031497
        },
        {
          "duration": 0.2912619999999997,
          "durationTicks": 7680,
          "midi": 74,
          "name": "D5",
          "ticks": 668159,
          "time": 25.339756075260414,
          "velocity": 0.7874015748031497
        },
        {
          "duration": 0.2912619999999997,
          "durationTicks": 7680,
          "midi": 78,
          "name": "F#5",
          "ticks": 675839,
          "time": 25.631018075260414,
          "velocity": 0.7874015748031497
        },
        {
          "duration": 0.2912619999999997,
          "durationTicks": 7680,
          "midi": 74,
          "name": "D5",
          "ticks": 683519,
          "time": 25.922280075260414,
          "velocity": 0.7874015748031497
        },
        {
          "duration": 0.2912619999999997,
          "durationTicks": 7680,
          "midi": 70,
          "name": "A#4",
          "ticks": 691199,
          "time": 26.213542075260413,
          "velocity": 0.7874015748031497
        },
        {
          "duration": 0.2912619999999997,
          "durationTicks": 7680,
          "midi": 74,
          "name": "D5",
          "ticks": 698879,
          "time": 26.504804075260413,
          "velocity": 0.7874015748031497
        },
        {
          "duration": 0.2912619999999997,
          "durationTicks": 7680,
          "midi": 78,
          "name": "F#5",
          "ticks": 706559,
          "time": 26.796066075260413,
          "velocity": 0.7874015748031497
        },
        {
          "duration": 0.29126200000000324,
          "durationTicks": 7680,
          "midi": 74,
          "name": "D5",
          "ticks": 714239,
          "time": 27.087328075260412,
          "velocity": 0.7874015748031497
        },
        {
          "duration": 0.2912619999999997,
          "durationTicks": 7680,
          "midi": 70,
          "name": "A#4",
          "ticks": 721919,
          "time": 27.378590075260416,
          "velocity": 0.7874015748031497
        },
        {
          "duration": 0.2912619999999997,
          "durationTicks": 7680,
          "midi": 78,
          "name": "F#5",
          "ticks": 729599,
          "time": 27.669852075260415,
          "velocity": 0.7874015748031497
        },
        {
          "duration": 0.2912619999999997,
          "durationTicks": 7680,
          "midi": 75,
          "name": "D#5",
          "ticks": 737279,
          "time": 27.961114075260415,
          "velocity": 0.7874015748031497
        },
        {
          "duration": 0.2912619999999997,
          "durationTicks": 7680,
          "midi": 72,
          "name": "C5",
          "ticks": 744959,
          "time": 28.252376075260415,
          "velocity": 0.7874015748031497
        },
        {
          "duration": 0.2912619999999997,
          "durationTicks": 7680,
          "midi": 67,
          "name": "G4",
          "ticks": 752639,
          "time": 28.543638075260414,
          "velocity": 0.7874015748031497
        },
        {
          "duration": 0.2912619999999997,
          "durationTicks": 7680,
          "midi": 72,
          "name": "C5",
          "ticks": 760319,
          "time": 28.834900075260414,
          "velocity": 0.7874015748031497
        },
        {
          "duration": 0.2912619999999997,
          "durationTicks": 7680,
          "midi": 75,
          "name": "D#5",
          "ticks": 767999,
          "time": 29.126162075260414,
          "velocity": 0.7874015748031497
        },
        {
          "duration": 0.2912619999999997,
          "durationTicks": 7680,
          "midi": 72,
          "name": "C5",
          "ticks": 775679,
          "time": 29.417424075260413,
          "velocity": 0.7874015748031497
        },
        {
          "duration": 0.2912619999999997,
          "durationTicks": 7680,
          "midi": 75,
          "name": "D#5",
          "ticks": 783359,
          "time": 29.708686075260413,
          "velocity": 0.7874015748031497
        },
        {
          "duration": 0.2912619999999997,
          "durationTicks": 7680,
          "midi": 67,
          "name": "G4",
          "ticks": 791039,
          "time": 29.999948075260413,
          "velocity": 0.7874015748031497
        },
        {
          "duration": 0.2912619999999997,
          "durationTicks": 7680,
          "midi": 75,
          "name": "D#5",
          "ticks": 798719,
          "time": 30.291210075260413,
          "velocity": 0.7874015748031497
        },
        {
          "duration": 0.2912619999999997,
          "durationTicks": 7680,
          "midi": 72,
          "name": "C5",
          "ticks": 806399,
          "time": 30.582472075260412,
          "velocity": 0.7874015748031497
        },
        {
          "duration": 0.29126200000000324,
          "durationTicks": 7680,
          "midi": 67,
          "name": "G4",
          "ticks": 814079,
          "time": 30.873734075260412,
          "velocity": 0.7874015748031497
        },
        {
          "duration": 0.2912619999999997,
          "durationTicks": 7680,
          "midi": 72,
          "name": "C5",
          "ticks": 821759,
          "time": 31.164996075260415,
          "velocity": 0.7874015748031497
        },
        {
          "duration": 0.2912619999999997,
          "durationTicks": 7680,
          "midi": 75,
          "name": "D#5",
          "ticks": 829439,
          "time": 31.456258075260415,
          "velocity": 0.7874015748031497
        },
        {
          "duration": 0.2912619999999997,
          "durationTicks": 7680,
          "midi": 72,
          "name": "C5",
          "ticks": 837119,
          "time": 31.747520075260415,
          "velocity": 0.7874015748031497
        },
        {
          "duration": 0.29126199999999614,
          "durationTicks": 7680,
          "midi": 75,
          "name": "D#5",
          "ticks": 844799,
          "time": 32.038782075260414,
          "velocity": 0.7874015748031497
        },
        {
          "duration": 0.29126200000000324,
          "durationTicks": 7680,
          "midi": 67,
          "name": "G4",
          "ticks": 852479,
          "time": 32.33004407526041,
          "velocity": 0.7874015748031497
        },
        {
          "duration": 0.29126200000000324,
          "durationTicks": 7680,
          "midi": 69,
          "name": "A4",
          "ticks": 860159,
          "time": 32.621306075260414,
          "velocity": 0.7874015748031497
        },
        {
          "duration": 0.29126199999999614,
          "durationTicks": 7680,
          "midi": 66,
          "name": "F#4",
          "ticks": 867839,
          "time": 32.91256807526042,
          "velocity": 0.7874015748031497
        },
        {
          "duration": 0.29126200000000324,
          "durationTicks": 7680,
          "midi": 62,
          "name": "D4",
          "ticks": 875519,
          "time": 33.20383007526041,
          "velocity": 0.7874015748031497
        },
        {
          "duration": 0.29126199999999614,
          "durationTicks": 7680,
          "midi": 66,
          "name": "F#4",
          "ticks": 883199,
          "time": 33.495092075260416,
          "velocity": 0.7874015748031497
        },
        {
          "duration": 0.29126200000000324,
          "durationTicks": 7680,
          "midi": 69,
          "name": "A4",
          "ticks": 890879,
          "time": 33.78635407526041,
          "velocity": 0.7874015748031497
        },
        {
          "duration": 0.29126199999999614,
          "durationTicks": 7680,
          "midi": 72,
          "name": "C5",
          "ticks": 898559,
          "time": 34.077616075260416,
          "velocity": 0.7874015748031497
        },
        {
          "duration": 0.29126200000000324,
          "durationTicks": 7680,
          "midi": 62,
          "name": "D4",
          "ticks": 906239,
          "time": 34.36887807526041,
          "velocity": 0.7874015748031497
        },
        {
          "duration": 0.29126199999999614,
          "durationTicks": 7680,
          "midi": 66,
          "name": "F#4",
          "ticks": 913919,
          "time": 34.660140075260415,
          "velocity": 0.7874015748031497
        },
        {
          "duration": 0.29126200000000324,
          "durationTicks": 7680,
          "midi": 69,
          "name": "A4",
          "ticks": 921599,
          "time": 34.95140207526041,
          "velocity": 0.7874015748031497
        },
        {
          "duration": 0.29126199999999614,
          "durationTicks": 7680,
          "midi": 66,
          "name": "F#4",
          "ticks": 929279,
          "time": 35.242664075260414,
          "velocity": 0.7874015748031497
        },
        {
          "duration": 0.29126200000000324,
          "durationTicks": 7680,
          "midi": 62,
          "name": "D4",
          "ticks": 936959,
          "time": 35.53392607526041,
          "velocity": 0.7874015748031497
        },
        {
          "duration": 0.29126199999999614,
          "durationTicks": 7680,
          "midi": 66,
          "name": "F#4",
          "ticks": 944639,
          "time": 35.825188075260414,
          "velocity": 0.7874015748031497
        },
        {
          "duration": 0.29126200000000324,
          "durationTicks": 7680,
          "midi": 69,
          "name": "A4",
          "ticks": 952319,
          "time": 36.11645007526041,
          "velocity": 0.7874015748031497
        },
        {
          "duration": 0.29126200000000324,
          "durationTicks": 7680,
          "midi": 72,
          "name": "C5",
          "ticks": 959999,
          "time": 36.40771207526041,
          "velocity": 0.7874015748031497
        },
        {
          "duration": 0.29126199999999614,
          "durationTicks": 7680,
          "midi": 62,
          "name": "D4",
          "ticks": 967679,
          "time": 36.698974075260416,
          "velocity": 0.7874015748031497
        },
        {
          "duration": 0.29126200000000324,
          "durationTicks": 7680,
          "midi": 66,
          "name": "F#4",
          "ticks": 975359,
          "time": 36.99023607526041,
          "velocity": 0.7874015748031497
        },
        {
          "duration": 0.29126199999999614,
          "durationTicks": 7680,
          "midi": 79,
          "name": "G5",
          "ticks": 983039,
          "time": 37.281498075260416,
          "velocity": 0.7874015748031497
        },
        {
          "duration": 0.29126200000000324,
          "durationTicks": 7680,
          "midi": 74,
          "name": "D5",
          "ticks": 990719,
          "time": 37.57276007526041,
          "velocity": 0.7874015748031497
        },
        {
          "duration": 0.29126199999999614,
          "durationTicks": 7680,
          "midi": 70,
          "name": "A#4",
          "ticks": 998399,
          "time": 37.864022075260415,
          "velocity": 0.7874015748031497
        },
        {
          "duration": 0.29126200000000324,
          "durationTicks": 7680,
          "midi": 74,
          "name": "D5",
          "ticks": 1006079,
          "time": 38.15528407526041,
          "velocity": 0.7874015748031497
        },
        {
          "duration": 0.29126199999999614,
          "durationTicks": 7680,
          "midi": 79,
          "name": "G5",
          "ticks": 1013759,
          "time": 38.446546075260414,
          "velocity": 0.7874015748031497
        },
        {
          "duration": 0.29126200000000324,
          "durationTicks": 7680,
          "midi": 74,
          "name": "D5",
          "ticks": 1021439,
          "time": 38.73780807526041,
          "velocity": 0.7874015748031497
        },
        {
          "duration": 0.29126199999999614,
          "durationTicks": 7680,
          "midi": 70,
          "name": "A#4",
          "ticks": 1029119,
          "time": 39.029070075260414,
          "velocity": 0.7874015748031497
        },
        {
          "duration": 0.29126200000000324,
          "durationTicks": 7680,
          "midi": 74,
          "name": "D5",
          "ticks": 1036799,
          "time": 39.32033207526041,
          "velocity": 0.7874015748031497
        },
        {
          "duration": 0.29126199999999614,
          "durationTicks": 7680,
          "midi": 79,
          "name": "G5",
          "ticks": 1044479,
          "time": 39.61159407526041,
          "velocity": 0.7874015748031497
        },
        {
          "duration": 0.29126200000000324,
          "durationTicks": 7680,
          "midi": 74,
          "name": "D5",
          "ticks": 1052159,
          "time": 39.90285607526041,
          "velocity": 0.7874015748031497
        },
        {
          "duration": 0.29126200000000324,
          "durationTicks": 7680,
          "midi": 70,
          "name": "A#4",
          "ticks": 1059839,
          "time": 40.19411807526041,
          "velocity": 0.7874015748031497
        },
        {
          "duration": 0.29126199999999614,
          "durationTicks": 7680,
          "midi": 74,
          "name": "D5",
          "ticks": 1067519,
          "time": 40.485380075260416,
          "velocity": 0.7874015748031497
        },
        {
          "duration": 0.29126200000000324,
          "durationTicks": 7680,
          "midi": 79,
          "name": "G5",
          "ticks": 1075199,
          "time": 40.77664207526041,
          "velocity": 0.7874015748031497
        },
        {
          "duration": 0.29126199999999614,
          "durationTicks": 7680,
          "midi": 74,
          "name": "D5",
          "ticks": 1082879,
          "time": 41.067904075260415,
          "velocity": 0.7874015748031497
        },
        {
          "duration": 0.29126200000000324,
          "durationTicks": 7680,
          "midi": 70,
          "name": "A#4",
          "ticks": 1090559,
          "time": 41.35916607526041,
          "velocity": 0.7874015748031497
        },
        {
          "duration": 0.29126199999999614,
          "durationTicks": 7680,
          "midi": 74,
          "name": "D5",
          "ticks": 1098239,
          "time": 41.650428075260415,
          "velocity": 0.7874015748031497
        },
        {
          "duration": 0.29126200000000324,
          "durationTicks": 7680,
          "midi": 78,
          "name": "F#5",
          "ticks": 1105919,
          "time": 41.94169007526041,
          "velocity": 0.7874015748031497
        },
        {
          "duration": 0.29126199999999614,
          "durationTicks": 7680,
          "midi": 74,
          "name": "D5",
          "ticks": 1113599,
          "time": 42.232952075260414,
          "velocity": 0.7874015748031497
        },
        {
          "duration": 0.29126200000000324,
          "durationTicks": 7680,
          "midi": 70,
          "name": "A#4",
          "ticks": 1121279,
          "time": 42.52421407526041,
          "velocity": 0.7874015748031497
        },
        {
          "duration": 0.29126199999999614,
          "durationTicks": 7680,
          "midi": 74,
          "name": "D5",
          "ticks": 1128959,
          "time": 42.81547607526041,
          "velocity": 0.7874015748031497
        },
        {
          "duration": 0.29126200000000324,
          "durationTicks": 7680,
          "midi": 78,
          "name": "F#5",
          "ticks": 1136639,
          "time": 43.10673807526041,
          "velocity": 0.7874015748031497
        },
        {
          "duration": 0.29126199999999614,
          "durationTicks": 7680,
          "midi": 74,
          "name": "D5",
          "ticks": 1144319,
          "time": 43.39800007526041,
          "velocity": 0.7874015748031497
        },
        {
          "duration": 0.29126200000000324,
          "durationTicks": 7680,
          "midi": 70,
          "name": "A#4",
          "ticks": 1151999,
          "time": 43.68926207526041,
          "velocity": 0.7874015748031497
        },
        {
          "duration": 0.29126200000000324,
          "durationTicks": 7680,
          "midi": 74,
          "name": "D5",
          "ticks": 1159679,
          "time": 43.98052407526041,
          "velocity": 0.7874015748031497
        },
        {
          "duration": 0.29126199999999614,
          "durationTicks": 7680,
          "midi": 78,
          "name": "F#5",
          "ticks": 1167359,
          "time": 44.271786075260415,
          "velocity": 0.7874015748031497
        },
        {
          "duration": 0.29126200000000324,
          "durationTicks": 7680,
          "midi": 74,
          "name": "D5",
          "ticks": 1175039,
          "time": 44.56304807526041,
          "velocity": 0.7874015748031497
        },
        {
          "duration": 0.29126199999999614,
          "durationTicks": 7680,
          "midi": 70,
          "name": "A#4",
          "ticks": 1182719,
          "time": 44.854310075260415,
          "velocity": 0.7874015748031497
        },
        {
          "duration": 0.29126200000000324,
          "durationTicks": 7680,
          "midi": 74,
          "name": "D5",
          "ticks": 1190399,
          "time": 45.14557207526041,
          "velocity": 0.7874015748031497
        },
        {
          "duration": 0.29126199999999614,
          "durationTicks": 7680,
          "midi": 78,
          "name": "F#5",
          "ticks": 1198079,
          "time": 45.436834075260414,
          "velocity": 0.7874015748031497
        },
        {
          "duration": 0.29126200000000324,
          "durationTicks": 7680,
          "midi": 74,
          "name": "D5",
          "ticks": 1205759,
          "time": 45.72809607526041,
          "velocity": 0.7874015748031497
        },
        {
          "duration": 0.29126199999999614,
          "durationTicks": 7680,
          "midi": 70,
          "name": "A#4",
          "ticks": 1213439,
          "time": 46.01935807526041,
          "velocity": 0.7874015748031497
        },
        {
          "duration": 0.29126200000000324,
          "durationTicks": 7680,
          "midi": 78,
          "name": "F#5",
          "ticks": 1221119,
          "time": 46.31062007526041,
          "velocity": 0.7874015748031497
        },
        {
          "duration": 0.29126199999999614,
          "durationTicks": 7680,
          "midi": 75,
          "name": "D#5",
          "ticks": 1228799,
          "time": 46.60188207526041,
          "velocity": 0.7874015748031497
        },
        {
          "duration": 0.29126200000000324,
          "durationTicks": 7680,
          "midi": 72,
          "name": "C5",
          "ticks": 1236479,
          "time": 46.89314407526041,
          "velocity": 0.7874015748031497
        },
        {
          "duration": 0.29126199999999614,
          "durationTicks": 7680,
          "midi": 67,
          "name": "G4",
          "ticks": 1244159,
          "time": 47.18440607526041,
          "velocity": 0.7874015748031497
        },
        {
          "duration": 0.29126200000000324,
          "durationTicks": 7680,
          "midi": 72,
          "name": "C5",
          "ticks": 1251839,
          "time": 47.47566807526041,
          "velocity": 0.7874015748031497
        },
        {
          "duration": 0.29126200000000324,
          "durationTicks": 7680,
          "midi": 75,
          "name": "D#5",
          "ticks": 1259519,
          "time": 47.76693007526041,
          "velocity": 0.7874015748031497
        },
        {
          "duration": 0.29126199999999614,
          "durationTicks": 7680,
          "midi": 72,
          "name": "C5",
          "ticks": 1267199,
          "time": 48.058192075260415,
          "velocity": 0.7874015748031497
        },
        {
          "duration": 0.29126200000000324,
          "durationTicks": 7680,
          "midi": 75,
          "name": "D#5",
          "ticks": 1274879,
          "time": 48.34945407526041,
          "velocity": 0.7874015748031497
        },
        {
          "duration": 0.29126199999999614,
          "durationTicks": 7680,
          "midi": 67,
          "name": "G4",
          "ticks": 1282559,
          "time": 48.640716075260414,
          "velocity": 0.7874015748031497
        },
        {
          "duration": 0.29126200000000324,
          "durationTicks": 7680,
          "midi": 75,
          "name": "D#5",
          "ticks": 1290239,
          "time": 48.93197807526041,
          "velocity": 0.7874015748031497
        },
        {
          "duration": 0.29126199999999614,
          "durationTicks": 7680,
          "midi": 72,
          "name": "C5",
          "ticks": 1297919,
          "time": 49.223240075260414,
          "velocity": 0.7874015748031497
        },
        {
          "duration": 0.29126200000000324,
          "durationTicks": 7680,
          "midi": 67,
          "name": "G4",
          "ticks": 1305599,
          "time": 49.51450207526041,
          "velocity": 0.7874015748031497
        },
        {
          "duration": 0.29126199999999614,
          "durationTicks": 7680,
          "midi": 72,
          "name": "C5",
          "ticks": 1313279,
          "time": 49.80576407526041,
          "velocity": 0.7874015748031497
        },
        {
          "duration": 0.29126200000000324,
          "durationTicks": 7680,
          "midi": 75,
          "name": "D#5",
          "ticks": 1320959,
          "time": 50.09702607526041,
          "velocity": 0.7874015748031497
        },
        {
          "duration": 0.29126199999999614,
          "durationTicks": 7680,
          "midi": 72,
          "name": "C5",
          "ticks": 1328639,
          "time": 50.38828807526041,
          "velocity": 0.7874015748031497
        },
        {
          "duration": 0.29126200000000324,
          "durationTicks": 7680,
          "midi": 75,
          "name": "D#5",
          "ticks": 1336319,
          "time": 50.67955007526041,
          "velocity": 0.7874015748031497
        },
        {
          "duration": 0.29126199999999614,
          "durationTicks": 7680,
          "midi": 67,
          "name": "G4",
          "ticks": 1343999,
          "time": 50.97081207526041,
          "velocity": 0.7874015748031497
        },
        {
          "duration": 0.29126200000000324,
          "durationTicks": 7680,
          "midi": 69,
          "name": "A4",
          "ticks": 1351679,
          "time": 51.26207407526041,
          "velocity": 0.7874015748031497
        },
        {
          "duration": 0.29126200000000324,
          "durationTicks": 7680,
          "midi": 66,
          "name": "F#4",
          "ticks": 1359359,
          "time": 51.55333607526041,
          "velocity": 0.7874015748031497
        },
        {
          "duration": 0.29126199999999614,
          "durationTicks": 7680,
          "midi": 62,
          "name": "D4",
          "ticks": 1367039,
          "time": 51.844598075260414,
          "velocity": 0.7874015748031497
        },
        {
          "duration": 0.29126200000000324,
          "durationTicks": 7680,
          "midi": 66,
          "name": "F#4",
          "ticks": 1374719,
          "time": 52.13586007526041,
          "velocity": 0.7874015748031497
        },
        {
          "duration": 0.29126199999999614,
          "durationTicks": 7680,
          "midi": 69,
          "name": "A4",
          "ticks": 1382399,
          "time": 52.427122075260414,
          "velocity": 0.7874015748031497
        },
        {
          "duration": 0.29126200000000324,
          "durationTicks": 7680,
          "midi": 72,
          "name": "C5",
          "ticks": 1390079,
          "time": 52.71838407526041,
          "velocity": 0.7874015748031497
        },
        {
          "duration": 0.29126199999999614,
          "durationTicks": 7680,
          "midi": 62,
          "name": "D4",
          "ticks": 1397759,
          "time": 53.00964607526041,
          "velocity": 0.7874015748031497
        },
        {
          "duration": 0.29126200000000324,
          "durationTicks": 7680,
          "midi": 66,
          "name": "F#4",
          "ticks": 1405439,
          "time": 53.30090807526041,
          "velocity": 0.7874015748031497
        },
        {
          "duration": 0.29126199999999614,
          "durationTicks": 7680,
          "midi": 69,
          "name": "A4",
          "ticks": 1413119,
          "time": 53.59217007526041,
          "velocity": 0.7874015748031497
        },
        {
          "duration": 0.29126200000000324,
          "durationTicks": 7680,
          "midi": 66,
          "name": "F#4",
          "ticks": 1420799,
          "time": 53.88343207526041,
          "velocity": 0.7874015748031497
        },
        {
          "duration": 0.29126199999999614,
          "durationTicks": 7680,
          "midi": 62,
          "name": "D4",
          "ticks": 1428479,
          "time": 54.17469407526041,
          "velocity": 0.7874015748031497
        },
        {
          "duration": 0.29126200000000324,
          "durationTicks": 7680,
          "midi": 66,
          "name": "F#4",
          "ticks": 1436159,
          "time": 54.46595607526041,
          "velocity": 0.7874015748031497
        },
        {
          "duration": 0.29126199999999614,
          "durationTicks": 7680,
          "midi": 69,
          "name": "A4",
          "ticks": 1443839,
          "time": 54.75721807526041,
          "velocity": 0.7874015748031497
        },
        {
          "duration": 0.29126200000000324,
          "durationTicks": 7680,
          "midi": 72,
          "name": "C5",
          "ticks": 1451519,
          "time": 55.04848007526041,
          "velocity": 0.7874015748031497
        },
        {
          "duration": 0.29126200000000324,
          "durationTicks": 7680,
          "midi": 62,
          "name": "D4",
          "ticks": 1459199,
          "time": 55.33974207526041,
          "velocity": 0.7874015748031497
        },
        {
          "duration": 0.29126199999999614,
          "durationTicks": 7680,
          "midi": 66,
          "name": "F#4",
          "ticks": 1466879,
          "time": 55.631004075260414,
          "velocity": 0.7874015748031497
        }
];

export default cueSet2;
